<?xml version="1.0" encoding="UTF-8"?>
<!DOCTYPE svg PUBLIC "-//W3C//DTD SVG 1.1//EN" "http://www.w3.org/Graphics/SVG/1.1/DTD/svg11.dtd">
<!-- Creator: CorelDRAW 2017 -->
<svg xmlns="http://www.w3.org/2000/svg" xml:space="preserve" width="46mm" height="17mm" version="1.1" style="shape-rendering:geometricPrecision; text-rendering:geometricPrecision; image-rendering:optimizeQuality; fill-rule:evenodd; clip-rule:evenodd"
viewBox="0 0 4600 1700"
 xmlns:xlink="http://www.w3.org/1999/xlink">
 <defs>
  <style type="text/css">
   <![CDATA[
    .str0 {stroke:white;stroke-width:10}
    .fil4 {fill:#0070E8}
    .fil6 {fill:aqua}
    .fil1 {fill:aqua}
    .fil7 {fill:#0100FF}
    .fil2 {fill:#9100FF}
    .fil3 {fill:fuchsia}
    .fil5 {fill:#FF2DD4}
    .fil0 {fill:#0100FF;fill-rule:nonzero}
   ]]>
  </style>
 </defs>
 <g id="Capa_x0020_1">
  <metadata id="CorelCorpID_0Corel-Layer"/>
  <g id="_2455785887520">
   <path class="fil0" d="M1879 699l0 98 157 0 0 91 -157 0 0 106 178 0 0 94 -296 0 0 -482 296 0 0 94 -178 0zm550 98l0 98 -302 0 0 -98 302 0zm259 296c-33,0 -63,-6 -89,-17 -26,-11 -47,-27 -62,-47 -15,-20 -24,-42 -25,-67l116 0c1,13 8,24 19,32 11,8 25,12 41,12 15,0 26,-3 34,-9 8,-6 12,-13 12,-22 0,-11 -6,-19 -17,-24 -11,-5 -30,-11 -56,-18 -27,-6 -50,-13 -69,-20 -18,-7 -34,-18 -47,-34 -13,-15 -20,-36 -20,-62 0,-22 6,-42 18,-60 12,-18 30,-32 54,-43 24,-11 52,-16 84,-16 48,0 86,12 114,36 28,24 44,55 48,95l-109 0c-2,-13 -8,-24 -18,-32 -10,-8 -23,-12 -39,-12 -14,0 -24,3 -32,8 -7,5 -11,12 -11,22 0,11 6,19 18,25 12,5 30,11 55,16 28,7 52,15 69,22 18,7 34,19 47,34 14,16 21,37 21,64 0,22 -6,43 -19,60 -13,18 -31,32 -54,42 -24,10 -51,15 -82,15zm463 -393c44,0 79,15 106,44 27,29 40,69 40,120l0 224 -117 0 0 -208c0,-26 -7,-46 -20,-60 -13,-14 -31,-21 -54,-21 -22,0 -40,7 -54,21 -13,14 -20,34 -20,60l0 208 -118 0 0 -509 118 0 0 177c12,-17 28,-30 49,-41 21,-10 44,-15 69,-15zm402 393c-38,0 -71,-8 -101,-24 -30,-16 -54,-39 -71,-69 -17,-30 -26,-65 -26,-104 0,-39 9,-74 26,-104 17,-30 41,-53 71,-69 30,-16 64,-24 102,-24 38,0 71,8 102,24 30,16 54,39 71,69 17,30 26,65 26,104 0,39 -9,74 -26,104 -18,30 -42,53 -72,69 -30,16 -64,24 -102,24zm0 -102c22,0 42,-8 57,-25 16,-16 24,-40 24,-71 0,-31 -8,-54 -23,-71 -15,-17 -34,-25 -57,-25 -23,0 -42,8 -57,24 -15,16 -23,40 -23,71 0,31 7,54 22,71 15,17 34,25 56,25zm625 -102c0,11 -1,22 -2,34l-266 0c2,24 10,42 23,55 14,13 30,19 50,19 29,0 50,-12 61,-37l125 0c-6,25 -18,48 -35,68 -17,20 -38,36 -63,47 -25,11 -53,17 -85,17 -38,0 -71,-8 -100,-24 -29,-16 -52,-39 -69,-69 -16,-30 -25,-65 -25,-104 0,-40 8,-75 24,-104 16,-30 39,-53 68,-69 29,-16 63,-24 101,-24 37,0 70,8 99,23 29,16 51,38 68,67 16,29 24,63 24,101zm-120 -31c0,-20 -7,-36 -21,-48 -14,-12 -31,-18 -52,-18 -20,0 -36,6 -50,17 -14,11 -22,28 -25,49l147 0zm338 234c-33,0 -63,-6 -89,-17 -26,-11 -47,-27 -62,-47 -15,-20 -24,-42 -25,-67l116 0c1,13 8,24 19,32 11,8 25,12 41,12 15,0 26,-3 34,-9 8,-6 12,-13 12,-22 0,-11 -6,-19 -17,-24 -11,-5 -30,-11 -56,-18 -27,-6 -50,-13 -69,-20 -18,-7 -34,-18 -47,-34 -13,-15 -20,-36 -20,-62 0,-22 6,-42 18,-60 12,-18 30,-32 54,-43 24,-11 52,-16 84,-16 48,0 86,12 114,36 28,24 44,55 48,95l-109 0c-2,-13 -8,-24 -18,-32 -10,-8 -23,-12 -39,-12 -14,0 -24,3 -32,8 -7,5 -11,12 -11,22 0,11 6,19 18,25 12,5 30,11 55,16 28,7 52,15 69,22 18,7 34,19 47,34 14,16 21,37 21,64 0,22 -6,43 -19,60 -13,18 -31,32 -54,42 -24,10 -51,15 -82,15z"/>
   <g>
    <polygon class="fil1 str0" points="228,387 43,287 622,19 820,112 "/>
    <polygon class="fil2 str0" points="228,387 271,535 830,268 820,112 "/>
    <polygon class="fil3 str0" points="271,535 400,1134 830,896 "/>
    <polygon class="fil4 str0" points="830,896 1386,552 1247,1134 "/>
    <polygon class="fil1 str0" points="830,268 1386,552 830,896 "/>
    <polygon class="fil5 str0" points="830,268 830,896 271,535 "/>
    <path class="fil6" d="M1149 1287c57,0 103,46 103,103 0,57 -46,103 -103,103 -57,0 -103,-46 -103,-103 0,-57 46,-103 103,-103z"/>
    <polygon class="fil7 str0" points="827,1371 830,896 1247,1134 "/>
    <polygon class="fil2 str0" points="400,1134 830,896 827,1371 "/>
    <path class="fil7" d="M830 1447c57,0 103,46 103,103 0,57 -46,103 -103,103 -57,0 -103,-46 -103,-103 0,-57 46,-103 103,-103z"/>
    <path class="fil5" d="M509 1288c57,0 103,46 103,103 0,57 -46,103 -103,103 -57,0 -103,-46 -103,-103 0,-57 46,-103 103,-103z"/>
   </g>
  </g>
 </g>
</svg>
